<?xml version="1.0" encoding="UTF-8"?>
<svg xmlns="http://www.w3.org/2000/svg" xmlns:xlink="http://www.w3.org/1999/xlink" width="854" height="480" viewBox="0 0 854 480">
<defs>
<g>
<g id="glyph-0-0">
<path d="M 2.09375 0.859375 C 1.6875 0.691406 1.359375 0.476562 1.109375 0.21875 C 0.859375 -0.03125 0.671875 -0.347656 0.546875 -0.734375 C 0.429688 -1.117188 0.375 -1.578125 0.375 -2.109375 C 0.375 -2.648438 0.429688 -3.109375 0.546875 -3.484375 C 0.671875 -3.867188 0.859375 -4.1875 1.109375 -4.4375 C 1.359375 -4.695312 1.6875 -4.910156 2.09375 -5.078125 L 2.09375 -4.765625 C 1.863281 -4.628906 1.679688 -4.460938 1.546875 -4.265625 C 1.410156 -4.078125 1.304688 -3.863281 1.234375 -3.625 C 1.171875 -3.394531 1.128906 -3.148438 1.109375 -2.890625 C 1.085938 -2.640625 1.078125 -2.378906 1.078125 -2.109375 C 1.078125 -1.847656 1.085938 -1.585938 1.109375 -1.328125 C 1.128906 -1.078125 1.171875 -0.832031 1.234375 -0.59375 C 1.304688 -0.363281 1.410156 -0.148438 1.546875 0.046875 C 1.679688 0.242188 1.863281 0.410156 2.09375 0.546875 Z "/>
</g>
</g>
</defs>
<g fill="rgb(6.666667%, 7.45098%, 9.411765%)" fill-opacity="1">
<use xlink:href="#glyph-0-0" x="30" y="27.126953"/>
</g>
</svg>
