<?xml version="1.0" encoding="UTF-8"?>
<svg xmlns="http://www.w3.org/2000/svg" xmlns:xlink="http://www.w3.org/1999/xlink" width="854" height="480" viewBox="0 0 854 480">
<defs>
<g>
<g id="glyph-0-0">
<path d="M 1.96875 0.078125 C 1.601562 0.078125 1.300781 0.015625 1.0625 -0.109375 C 0.820312 -0.234375 0.640625 -0.398438 0.515625 -0.609375 C 0.390625 -0.816406 0.328125 -1.046875 0.328125 -1.296875 C 0.328125 -1.523438 0.375 -1.71875 0.46875 -1.875 C 0.570312 -2.03125 0.707031 -2.164062 0.875 -2.28125 C 1.039062 -2.40625 1.222656 -2.515625 1.421875 -2.609375 C 1.242188 -2.710938 1.082031 -2.828125 0.9375 -2.953125 C 0.800781 -3.078125 0.691406 -3.21875 0.609375 -3.375 C 0.535156 -3.539062 0.5 -3.726562 0.5 -3.9375 C 0.5 -4.15625 0.550781 -4.363281 0.65625 -4.5625 C 0.757812 -4.757812 0.925781 -4.914062 1.15625 -5.03125 C 1.382812 -5.15625 1.6875 -5.21875 2.0625 -5.21875 C 2.363281 -5.21875 2.617188 -5.164062 2.828125 -5.0625 C 3.035156 -4.957031 3.195312 -4.8125 3.3125 -4.625 C 3.425781 -4.4375 3.484375 -4.222656 3.484375 -3.984375 C 3.484375 -3.671875 3.390625 -3.425781 3.203125 -3.25 C 3.023438 -3.070312 2.789062 -2.910156 2.5 -2.765625 C 2.738281 -2.648438 2.945312 -2.523438 3.125 -2.390625 C 3.3125 -2.253906 3.453125 -2.101562 3.546875 -1.9375 C 3.648438 -1.78125 3.703125 -1.59375 3.703125 -1.375 C 3.703125 -0.914062 3.546875 -0.554688 3.234375 -0.296875 C 2.921875 -0.046875 2.5 0.078125 1.96875 0.078125 Z M 2 -0.265625 C 2.3125 -0.265625 2.5625 -0.351562 2.75 -0.53125 C 2.945312 -0.707031 3.046875 -0.9375 3.046875 -1.21875 C 3.046875 -1.382812 3.003906 -1.535156 2.921875 -1.671875 C 2.835938 -1.804688 2.703125 -1.929688 2.515625 -2.046875 C 2.335938 -2.171875 2.09375 -2.300781 1.78125 -2.4375 C 1.550781 -2.320312 1.367188 -2.164062 1.234375 -1.96875 C 1.097656 -1.769531 1.03125 -1.535156 1.03125 -1.265625 C 1.03125 -0.960938 1.109375 -0.71875 1.265625 -0.53125 C 1.429688 -0.351562 1.675781 -0.265625 2 -0.265625 Z M 2.15625 -2.9375 C 2.332031 -3.019531 2.46875 -3.109375 2.5625 -3.203125 C 2.664062 -3.304688 2.738281 -3.421875 2.78125 -3.546875 C 2.820312 -3.679688 2.84375 -3.832031 2.84375 -4 C 2.84375 -4.144531 2.8125 -4.285156 2.75 -4.421875 C 2.695312 -4.554688 2.609375 -4.664062 2.484375 -4.75 C 2.367188 -4.84375 2.210938 -4.890625 2.015625 -4.890625 C 1.742188 -4.890625 1.535156 -4.804688 1.390625 -4.640625 C 1.242188 -4.472656 1.171875 -4.265625 1.171875 -4.015625 C 1.171875 -3.847656 1.207031 -3.703125 1.28125 -3.578125 C 1.351562 -3.453125 1.460938 -3.335938 1.609375 -3.234375 C 1.753906 -3.128906 1.9375 -3.03125 2.15625 -2.9375 Z "/>
</g>
<g id="glyph-0-1">
<path d="M 0.90625 -2.796875 L 0.90625 -3.046875 L 1.109375 -3.046875 C 1.191406 -3.046875 1.257812 -3.0625 1.3125 -3.09375 C 1.375 -3.125 1.40625 -3.195312 1.40625 -3.3125 L 1.40625 -3.703125 L 0.109375 -3.703125 L 0.109375 -3.921875 L 1.46875 -5.90625 L 2.046875 -5.90625 L 2.046875 -4.015625 L 2.734375 -4.015625 L 2.734375 -3.703125 L 2.046875 -3.703125 L 2.046875 -3.3125 C 2.046875 -3.195312 2.078125 -3.125 2.140625 -3.09375 C 2.203125 -3.0625 2.269531 -3.046875 2.34375 -3.046875 L 2.484375 -3.046875 L 2.484375 -2.796875 Z M 0.546875 -4.015625 L 1.40625 -4.015625 L 1.40625 -4.84375 C 1.40625 -4.914062 1.40625 -5 1.40625 -5.09375 C 1.414062 -5.1875 1.425781 -5.28125 1.4375 -5.375 C 1.414062 -5.332031 1.394531 -5.289062 1.375 -5.25 C 1.351562 -5.207031 1.335938 -5.175781 1.328125 -5.15625 Z "/>
</g>
<g id="glyph-0-2">
</g>
<g id="glyph-0-3">
<path d="M 0.46875 -2.296875 L 0.46875 -2.859375 L 3.703125 -2.859375 L 3.703125 -2.296875 Z "/>
</g>
<g id="glyph-0-4">
<path d="M 0.6875 0 L 0.6875 -0.296875 L 1.171875 -0.296875 C 1.285156 -0.296875 1.382812 -0.304688 1.46875 -0.328125 C 1.5625 -0.359375 1.632812 -0.410156 1.6875 -0.484375 C 1.738281 -0.554688 1.765625 -0.671875 1.765625 -0.828125 L 1.765625 -4.609375 C 1.585938 -4.390625 1.421875 -4.207031 1.265625 -4.0625 C 1.117188 -3.925781 0.976562 -3.859375 0.84375 -3.859375 C 0.726562 -3.859375 0.632812 -3.894531 0.5625 -3.96875 C 0.5 -4.039062 0.46875 -4.132812 0.46875 -4.25 C 0.613281 -4.289062 0.765625 -4.347656 0.921875 -4.421875 C 1.085938 -4.503906 1.289062 -4.632812 1.53125 -4.8125 L 2.03125 -5.1875 L 2.5 -5.1875 L 2.5 -0.828125 C 2.5 -0.671875 2.523438 -0.554688 2.578125 -0.484375 C 2.628906 -0.410156 2.703125 -0.359375 2.796875 -0.328125 C 2.890625 -0.304688 2.988281 -0.296875 3.09375 -0.296875 L 3.4375 -0.296875 L 3.4375 0 Z "/>
</g>
<g id="glyph-0-5">
<path d="M 0.46875 -3.078125 L 0.46875 -3.5 L 3.5625 -3.5 L 3.5625 -3.078125 Z M 0.46875 -1.65625 L 0.46875 -2.078125 L 3.5625 -2.078125 L 3.5625 -1.65625 Z "/>
</g>
<g id="glyph-0-6">
<path d="M 2.109375 0.078125 C 1.796875 0.078125 1.507812 -0.0078125 1.25 -0.1875 C 1 -0.375 0.800781 -0.660156 0.65625 -1.046875 C 0.507812 -1.441406 0.4375 -1.957031 0.4375 -2.59375 C 0.4375 -2.9375 0.472656 -3.265625 0.546875 -3.578125 C 0.628906 -3.898438 0.75 -4.179688 0.90625 -4.421875 C 1.0625 -4.671875 1.253906 -4.863281 1.484375 -5 C 1.722656 -5.144531 2.003906 -5.21875 2.328125 -5.21875 C 2.597656 -5.21875 2.816406 -5.179688 2.984375 -5.109375 C 3.160156 -5.046875 3.289062 -4.953125 3.375 -4.828125 C 3.46875 -4.710938 3.515625 -4.59375 3.515625 -4.46875 C 3.515625 -4.332031 3.46875 -4.222656 3.375 -4.140625 C 3.28125 -4.066406 3.140625 -4.03125 2.953125 -4.03125 C 2.953125 -4.195312 2.929688 -4.34375 2.890625 -4.46875 C 2.859375 -4.59375 2.796875 -4.691406 2.703125 -4.765625 C 2.609375 -4.835938 2.484375 -4.875 2.328125 -4.875 C 2.085938 -4.875 1.882812 -4.789062 1.71875 -4.625 C 1.550781 -4.46875 1.425781 -4.234375 1.34375 -3.921875 C 1.257812 -3.609375 1.207031 -3.21875 1.1875 -2.75 C 1.269531 -2.820312 1.359375 -2.882812 1.453125 -2.9375 C 1.554688 -3 1.671875 -3.046875 1.796875 -3.078125 C 1.921875 -3.117188 2.0625 -3.140625 2.21875 -3.140625 C 2.65625 -3.140625 3.003906 -3.003906 3.265625 -2.734375 C 3.535156 -2.472656 3.671875 -2.113281 3.671875 -1.65625 C 3.671875 -1.3125 3.609375 -1.007812 3.484375 -0.75 C 3.359375 -0.5 3.179688 -0.296875 2.953125 -0.140625 C 2.722656 0.00390625 2.441406 0.078125 2.109375 0.078125 Z M 2.140625 -0.328125 C 2.304688 -0.328125 2.445312 -0.367188 2.5625 -0.453125 C 2.6875 -0.546875 2.78125 -0.679688 2.84375 -0.859375 C 2.90625 -1.046875 2.9375 -1.285156 2.9375 -1.578125 C 2.9375 -1.992188 2.859375 -2.296875 2.703125 -2.484375 C 2.554688 -2.671875 2.347656 -2.765625 2.078125 -2.765625 C 1.953125 -2.765625 1.832031 -2.742188 1.71875 -2.703125 C 1.601562 -2.660156 1.5 -2.609375 1.40625 -2.546875 C 1.320312 -2.484375 1.242188 -2.414062 1.171875 -2.34375 C 1.179688 -1.625 1.269531 -1.109375 1.4375 -0.796875 C 1.613281 -0.484375 1.847656 -0.328125 2.140625 -0.328125 Z "/>
</g>
<g id="glyph-0-7">
<path d="M 1.78125 0.078125 C 1.46875 0.078125 1.207031 0.0390625 1 -0.03125 C 0.800781 -0.113281 0.65625 -0.210938 0.5625 -0.328125 C 0.46875 -0.453125 0.421875 -0.585938 0.421875 -0.734375 C 0.421875 -0.878906 0.460938 -0.988281 0.546875 -1.0625 C 0.628906 -1.144531 0.738281 -1.1875 0.875 -1.1875 C 0.875 -0.9375 0.953125 -0.726562 1.109375 -0.5625 C 1.265625 -0.394531 1.492188 -0.3125 1.796875 -0.3125 C 1.984375 -0.3125 2.15625 -0.347656 2.3125 -0.421875 C 2.476562 -0.503906 2.609375 -0.628906 2.703125 -0.796875 C 2.804688 -0.960938 2.859375 -1.191406 2.859375 -1.484375 C 2.859375 -1.785156 2.742188 -2.023438 2.515625 -2.203125 C 2.285156 -2.390625 1.96875 -2.484375 1.5625 -2.484375 L 1.328125 -2.484375 L 1.328125 -2.84375 L 1.5625 -2.84375 C 1.769531 -2.84375 1.957031 -2.890625 2.125 -2.984375 C 2.300781 -3.078125 2.4375 -3.207031 2.53125 -3.375 C 2.632812 -3.539062 2.6875 -3.738281 2.6875 -3.96875 C 2.6875 -4.25 2.628906 -4.46875 2.515625 -4.625 C 2.398438 -4.78125 2.203125 -4.859375 1.921875 -4.859375 C 1.703125 -4.859375 1.535156 -4.804688 1.421875 -4.703125 C 1.304688 -4.609375 1.226562 -4.476562 1.1875 -4.3125 C 1.144531 -4.15625 1.125 -3.984375 1.125 -3.796875 C 0.945312 -3.796875 0.796875 -3.828125 0.671875 -3.890625 C 0.554688 -3.953125 0.5 -4.078125 0.5 -4.265625 C 0.5 -4.453125 0.550781 -4.613281 0.65625 -4.75 C 0.769531 -4.894531 0.929688 -5.007812 1.140625 -5.09375 C 1.347656 -5.175781 1.609375 -5.21875 1.921875 -5.21875 C 2.378906 -5.21875 2.742188 -5.117188 3.015625 -4.921875 C 3.296875 -4.722656 3.4375 -4.441406 3.4375 -4.078125 C 3.4375 -3.859375 3.382812 -3.660156 3.28125 -3.484375 C 3.1875 -3.304688 3.050781 -3.148438 2.875 -3.015625 C 2.695312 -2.890625 2.5 -2.800781 2.28125 -2.75 C 2.414062 -2.738281 2.554688 -2.707031 2.703125 -2.65625 C 2.859375 -2.613281 3.003906 -2.539062 3.140625 -2.4375 C 3.285156 -2.34375 3.398438 -2.21875 3.484375 -2.0625 C 3.566406 -1.90625 3.609375 -1.707031 3.609375 -1.46875 C 3.609375 -1.1875 3.550781 -0.941406 3.4375 -0.734375 C 3.332031 -0.535156 3.1875 -0.378906 3 -0.265625 C 2.820312 -0.148438 2.625 -0.0625 2.40625 0 C 2.195312 0.0507812 1.988281 0.078125 1.78125 0.078125 Z "/>
</g>
<g id="glyph-0-8">
<path d="M 0.8125 -1.078125 L 0.515625 -1.390625 L 1.703125 -2.59375 L 0.515625 -3.78125 L 0.8125 -4.078125 L 2.015625 -2.890625 L 3.21875 -4.09375 L 3.515625 -3.78125 L 2.3125 -2.578125 L 3.515625 -1.390625 L 3.21875 -1.078125 L 2.015625 -2.28125 Z "/>
</g>
<g id="glyph-0-9">
<path d="M 1.765625 0.078125 C 1.410156 0.078125 1.132812 0.0390625 0.9375 -0.03125 C 0.738281 -0.113281 0.597656 -0.210938 0.515625 -0.328125 C 0.429688 -0.441406 0.390625 -0.550781 0.390625 -0.65625 C 0.390625 -0.789062 0.425781 -0.894531 0.5 -0.96875 C 0.582031 -1.039062 0.703125 -1.078125 0.859375 -1.078125 C 0.859375 -0.941406 0.890625 -0.816406 0.953125 -0.703125 C 1.015625 -0.597656 1.109375 -0.515625 1.234375 -0.453125 C 1.367188 -0.390625 1.53125 -0.359375 1.71875 -0.359375 C 1.914062 -0.359375 2.09375 -0.394531 2.25 -0.46875 C 2.40625 -0.539062 2.523438 -0.664062 2.609375 -0.84375 C 2.703125 -1.03125 2.75 -1.273438 2.75 -1.578125 C 2.75 -1.953125 2.648438 -2.234375 2.453125 -2.421875 C 2.253906 -2.609375 1.988281 -2.703125 1.65625 -2.703125 C 1.40625 -2.703125 1.21875 -2.679688 1.09375 -2.640625 C 0.96875 -2.609375 0.859375 -2.578125 0.765625 -2.546875 L 0.59375 -2.59375 L 0.828125 -5.15625 L 3.234375 -5.15625 L 3.28125 -4.0625 L 2.96875 -4.0625 L 2.9375 -4.28125 C 2.9375 -4.34375 2.921875 -4.394531 2.890625 -4.4375 C 2.867188 -4.488281 2.832031 -4.523438 2.78125 -4.546875 C 2.726562 -4.566406 2.65625 -4.578125 2.5625 -4.578125 L 1.15625 -4.578125 L 1.015625 -2.984375 C 1.066406 -3.003906 1.128906 -3.019531 1.203125 -3.03125 C 1.285156 -3.050781 1.378906 -3.066406 1.484375 -3.078125 C 1.597656 -3.085938 1.722656 -3.09375 1.859375 -3.09375 C 2.171875 -3.09375 2.453125 -3.035156 2.703125 -2.921875 C 2.953125 -2.804688 3.148438 -2.640625 3.296875 -2.421875 C 3.441406 -2.203125 3.515625 -1.921875 3.515625 -1.578125 C 3.515625 -1.378906 3.488281 -1.191406 3.4375 -1.015625 C 3.382812 -0.847656 3.304688 -0.695312 3.203125 -0.5625 C 3.109375 -0.4375 2.988281 -0.320312 2.84375 -0.21875 C 2.707031 -0.125 2.546875 -0.0507812 2.359375 0 C 2.179688 0.0507812 1.984375 0.078125 1.765625 0.078125 Z "/>
</g>
</g>
</defs>
<g fill="rgb(100%, 71.372549%, 28.235294%)" fill-opacity="1">
<use xlink:href="#glyph-0-0" x="30" y="27.720703"/>
<use xlink:href="#glyph-0-1" x="34" y="27.720703"/>
<use xlink:href="#glyph-0-2" x="37" y="27.720703"/>
<use xlink:href="#glyph-0-3" x="39" y="27.720703"/>
<use xlink:href="#glyph-0-2" x="43" y="27.720703"/>
<use xlink:href="#glyph-0-4" x="45" y="27.720703"/>
<use xlink:href="#glyph-0-2" x="49" y="27.720703"/>
<use xlink:href="#glyph-0-5" x="51" y="27.720703"/>
<use xlink:href="#glyph-0-2" x="55" y="27.720703"/>
<use xlink:href="#glyph-0-6" x="57" y="27.720703"/>
<use xlink:href="#glyph-0-7" x="61" y="27.720703"/>
<use xlink:href="#glyph-0-2" x="65" y="27.720703"/>
<use xlink:href="#glyph-0-8" x="67" y="27.720703"/>
<use xlink:href="#glyph-0-2" x="71" y="27.720703"/>
<use xlink:href="#glyph-0-6" x="73" y="27.720703"/>
<use xlink:href="#glyph-0-9" x="77" y="27.720703"/>
</g>
</svg>
